<?xml version="1.0" encoding="utf-8"?>
<svg xmlns="http://www.w3.org/2000/svg" viewBox="0 0 209.39 209.482" xmlns:bx="https://boxy-svg.com" width="209.39px" height="209.482px"><defs><clipPath clipPathUnits="userSpaceOnUse" id="clipPath2"><path d="M 0,768 H 1024 V 0 H 0 Z" transform="translate(-545.86621,-377.37791)" id="path2"/></clipPath><clipPath clipPathUnits="userSpaceOnUse" id="clipPath4"><path d="M 0,768 H 1024 V 0 H 0 Z" transform="translate(-545.86621,-377.37791)" id="path4"/></clipPath><clipPath clipPathUnits="userSpaceOnUse" id="clipPath6"><path d="M 0,768 H 1024 V 0 H 0 Z" transform="translate(-476.84471,-441.72071)" id="path6"/></clipPath><clipPath clipPathUnits="userSpaceOnUse" id="clipPath8"><path d="M 0,768 H 1024 V 0 H 0 Z" transform="translate(-478.74801,-438.89401)" id="path8"/></clipPath><clipPath clipPathUnits="userSpaceOnUse" id="clipPath10"><path d="M 0,768 H 1024 V 0 H 0 Z" transform="translate(-478.74801,-438.89401)" id="path10"/></clipPath><clipPath clipPathUnits="userSpaceOnUse" id="clipPath12"><path d="M 0,768 H 1024 V 0 H 0 Z" transform="translate(-550.05661,-441.71871)" id="path12"/></clipPath><clipPath clipPathUnits="userSpaceOnUse" id="clipPath14"><path d="M 0,768 H 1024 V 0 H 0 Z" transform="translate(-552.08401,-438.89451)" id="path14"/></clipPath><clipPath clipPathUnits="userSpaceOnUse" id="clipPath16"><path d="M 0,768 H 1024 V 0 H 0 Z" transform="translate(-552.08401,-438.89451)" id="path16"/></clipPath><clipPath clipPathUnits="userSpaceOnUse" id="clipPath18"><path d="M 0,768 H 1024 V 0 H 0 Z" transform="translate(-547.15432,-441.72021)" id="path18"/></clipPath><bx:export><bx:file format="svg" path="Sans titre.svg"/></bx:export></defs><g id="svg1" transform="matrix(1, 0, 0, 1, 16.136318, 56.283325)"><g id="layer-MC0" transform="matrix(1, 0, 0, 1, -594.128906, -414.068604)"><path id="path1" d="m 0,0 c -13.96,0 -26.067,7.913 -32.093,19.497 -0.755,1.45 -2.792,1.45 -3.546,0 C -41.665,7.913 -53.773,0 -67.733,0 c -20.829,0 -37.544,17.611 -36.068,38.755 1.234,17.682 15.458,32.05 33.127,33.447 15.488,1.224 29.116,-7.323 35.404,-20.128 -2.77,-3.162 -4.464,-7.289 -4.464,-11.824 0,-4.983 2.037,-9.479 5.309,-12.737 0.305,-0.304 0.812,-0.304 1.117,0 3.273,3.258 5.31,7.754 5.31,12.737 0,4.535 -1.694,8.662 -4.465,11.824 6.288,12.805 19.917,21.352 35.404,20.128 C 20.611,70.805 34.834,56.437 36.068,38.755 37.545,17.611 20.829,0 0,0" style="fill:#ffffff;fill-opacity:1;fill-rule:nonzero;stroke:none" transform="matrix(1.3333333,0,0,-1.3333333,727.8216,520.82947)" clip-path="url(#clipPath2)"/><path id="path3" d="m 0,0 c -13.96,0 -26.067,7.913 -32.093,19.497 -0.755,1.45 -2.792,1.45 -3.546,0 C -41.665,7.913 -53.773,0 -67.733,0 c -20.829,0 -37.544,17.611 -36.068,38.755 1.234,17.682 15.458,32.05 33.127,33.447 15.488,1.224 29.116,-7.323 35.404,-20.128 -2.77,-3.162 -4.464,-7.289 -4.464,-11.824 0,-4.983 2.037,-9.479 5.309,-12.737 0.305,-0.304 0.812,-0.304 1.117,0 3.273,3.258 5.31,7.754 5.31,12.737 0,4.535 -1.694,8.662 -4.465,11.824 6.288,12.805 19.917,21.352 35.404,20.128 C 20.611,70.805 34.834,56.437 36.068,38.755 37.545,17.611 20.829,0 0,0 m 43.675,89.094 c -0.64,0.639 -1.48,0.959 -2.316,0.959 -0.839,0 -1.675,-0.32 -2.315,-0.959 l -5.377,-5.375 c -13.679,23.038 -38.796,38.488 -67.533,38.488 -28.737,0 -53.855,-15.45 -67.534,-38.488 l -5.376,5.375 c -0.64,0.639 -1.476,0.959 -2.316,0.959 -0.835,0 -1.676,-0.32 -2.315,-0.959 -0.639,-0.64 -0.959,-1.48 -0.959,-2.316 V 43.707 c 0,-43.354 35.145,-78.5 78.5,-78.5 43.354,0 78.5,35.146 78.5,78.5 v 43.071 c 0,0.836 -0.321,1.676 -0.959,2.316" style="fill:#000000;fill-opacity:1;fill-rule:nonzero;stroke:none" transform="matrix(1.3333333,0,0,-1.3333333,727.8216,520.82947)" clip-path="url(#clipPath4)"/><path id="path5" d="m 0,0 c 7.887,-0.758 14.084,-7.379 14.137,-15.468 0.056,-8.642 -6.902,-15.698 -15.545,-15.757 -8.645,-0.059 -15.7,6.898 -15.755,15.542 -0.058,8.159 6.151,14.869 14.114,15.646 10e-4,0.009 0.003,0.016 0.003,0.025 -11.997,-0.794 -21.452,-10.789 -21.371,-22.972 0.086,-12.651 10.413,-22.835 23.058,-22.749 12.652,0.086 22.832,10.407 22.75,23.062 C 21.31,-10.591 11.871,-0.776 0,0" style="fill:#18a5d6;fill-opacity:1;fill-rule:nonzero;stroke:none" transform="matrix(1.3333333,0,0,-1.3333333,635.79293,435.03907)" clip-path="url(#clipPath6)"/><path id="path7" d="m 0,0 c 1.375,-1.303 2.284,-2.601 2.271,-4.724 -0.011,-3.059 -2.6,-5.545 -5.77,-5.559 -3.026,0.02 -5.582,2.588 -5.6,5.609 -0.014,2.469 1.413,3.839 2.18,4.574 l 0.338,0.329 c 0.866,0.834 1.548,1.5 1.628,2.561 -7.962,-0.777 -14.172,-7.488 -14.113,-15.646 0.055,-8.644 7.11,-15.602 15.754,-15.542 8.644,0.059 15.602,7.114 15.546,15.756 C 12.181,-4.552 5.983,2.069 -1.903,2.827 -1.945,2.83 -1.987,2.83 -2.028,2.832 -1.946,1.89 -0.961,0.874 0,0" style="fill:#18a5d6;fill-opacity:1;fill-rule:nonzero;stroke:none" transform="matrix(1.3333333,0,0,-1.3333333,638.33067,438.808)" clip-path="url(#clipPath8)"/><path id="path9" d="m 0,0 c 1.375,-1.303 2.284,-2.601 2.271,-4.724 -0.011,-3.059 -2.6,-5.545 -5.77,-5.559 -3.026,0.02 -5.582,2.588 -5.6,5.609 -0.014,2.469 1.413,3.839 2.18,4.574 l 0.338,0.329 c 0.866,0.834 1.548,1.5 1.628,2.561 -7.962,-0.777 -14.172,-7.488 -14.113,-15.646 0.055,-8.644 7.11,-15.602 15.754,-15.542 8.644,0.059 15.602,7.114 15.546,15.756 C 12.181,-4.552 5.983,2.069 -1.903,2.827 -1.945,2.83 -1.987,2.83 -2.028,2.832 -1.946,1.89 -0.961,0.874 0,0" style="fill:#004e69;fill-opacity:1;fill-rule:nonzero;stroke:none" transform="matrix(1.3333333,0,0,-1.3333333,638.33067,438.808)" clip-path="url(#clipPath10)"/><path id="path11" d="m 0,0 c 0,-0.006 0.003,-0.013 0.003,-0.02 8.032,-0.709 14.316,-7.453 14.258,-15.661 -0.056,-8.644 -7.111,-15.602 -15.755,-15.542 -8.645,0.059 -15.601,7.115 -15.546,15.757 0.054,8.082 6.241,14.698 14.118,15.465 C -2.921,0 -2.921,0 -2.921,0 c -11.862,-0.785 -21.291,-10.596 -21.373,-22.669 -0.082,-12.655 10.098,-22.976 22.751,-23.062 12.645,-0.086 22.972,10.098 23.058,22.749 C 21.596,-10.75 12.065,-0.724 0,0" style="fill:#f01446;fill-opacity:1;fill-rule:nonzero;stroke:none" transform="matrix(1.3333333,0,0,-1.3333333,733.4088,435.04173)" clip-path="url(#clipPath12)"/><path id="path13" d="m 0,0 c 1.375,-1.303 2.282,-2.601 2.27,-4.724 -0.012,-3.059 -2.599,-5.546 -5.77,-5.56 -3.026,0.021 -5.581,2.589 -5.6,5.609 -0.013,2.469 1.413,3.839 2.18,4.574 l 0.34,0.33 c 0.873,0.843 1.564,1.513 1.631,2.594 -7.877,-0.766 -14.065,-7.383 -14.118,-15.465 -0.055,-8.642 6.901,-15.697 15.546,-15.757 8.644,-0.059 15.699,6.898 15.754,15.542 C 12.292,-4.649 6.008,2.096 -2.024,2.805 -1.927,1.87 -0.953,0.865 0,0" style="fill:#f01446;fill-opacity:1;fill-rule:nonzero;stroke:none" transform="matrix(1.3333333,0,0,-1.3333333,736.112,438.80733)" clip-path="url(#clipPath14)"/><path id="path15" d="m 0,0 c 1.375,-1.303 2.282,-2.601 2.27,-4.724 -0.012,-3.059 -2.599,-5.546 -5.77,-5.56 -3.026,0.021 -5.581,2.589 -5.6,5.609 -0.013,2.469 1.413,3.839 2.18,4.574 l 0.34,0.33 c 0.873,0.843 1.564,1.513 1.631,2.594 -7.877,-0.766 -14.065,-7.383 -14.118,-15.465 -0.055,-8.642 6.901,-15.697 15.546,-15.757 8.644,-0.059 15.699,6.898 15.754,15.542 C 12.292,-4.649 6.008,2.096 -2.024,2.805 -1.927,1.87 -0.953,0.865 0,0" style="fill:#8b0020;fill-opacity:1;fill-rule:nonzero;stroke:none" transform="matrix(1.3333333,0,0,-1.3333333,736.112,438.80733)" clip-path="url(#clipPath16)"/><path id="path17" d="m 0,0 c -0.007,0 -0.013,-0.001 -0.019,-0.001 0,-0.001 0,-0.001 -0.001,-0.001 C -0.013,-0.002 -0.007,0 0,0" style="fill:#ffffff;fill-opacity:1;fill-rule:nonzero;stroke:none" transform="matrix(1.3333333,0,0,-1.3333333,729.53907,435.03973)" clip-path="url(#clipPath18)"/></g></g></svg>